<svg xmlns="http://www.w3.org/2000/svg" viewBox="0 0 14 9" width="14" height="9">
	<style>
		tspan { white-space:pre }
		.shp0 { fill: #000000 } 
	</style>
	<path id="fa-angle-down copia 4" class="shp0" d="M13,1.15c0,-0.11 -0.05,-0.23 -0.12,-0.32l-0.6,-0.69c-0.07,-0.08 -0.18,-0.14 -0.28,-0.14c-0.1,0 -0.2,0.05 -0.28,0.14l-4.73,5.4l-4.73,-5.4c-0.07,-0.08 -0.18,-0.14 -0.28,-0.14c-0.11,0 -0.2,0.05 -0.28,0.14l-0.6,0.69c-0.07,0.08 -0.12,0.21 -0.12,0.32c0,0.11 0.05,0.23 0.12,0.32l5.6,6.4c0.07,0.08 0.18,0.14 0.28,0.14c0.1,0 0.2,-0.05 0.28,-0.14l5.6,-6.4c0.07,-0.08 0.12,-0.21 0.12,-0.32z" />
</svg>