<svg xmlns="http://www.w3.org/2000/svg" viewBox="0 0 24 20" width="24" height="20">
	<style>
		tspan { white-space:pre }
		.shp0 { fill: #ffffff } 
	</style>
	<path id="fa-shopping-cart" class="shp0" d="M9.23 18.18C9.23 17.17 8.41 16.36 7.38 16.36C6.36 16.36 5.54 17.17 5.54 18.18C5.54 19.19 6.36 19.99 7.38 19.99C8.41 19.99 9.23 19.19 9.23 18.18ZM22.15 18.18C22.15 17.17 21.33 16.36 20.31 16.36C19.28 16.36 18.46 17.17 18.46 18.18C18.46 19.19 19.28 19.99 20.31 19.99C21.33 19.99 22.15 19.19 22.15 18.18ZM24 2.73C24 2.23 23.58 1.82 23.08 1.82L5.75 1.82C5.61 1.14 5.6 0 4.62 0L0.92 0C0.42 0 0 0.41 0 0.91C0 1.41 0.42 1.82 0.92 1.82L3.87 1.82L6.42 13.51C6.22 13.92 5.54 15.01 5.54 15.45C5.54 15.95 5.96 16.36 6.46 16.36L21.23 16.36C21.73 16.36 22.15 15.95 22.15 15.45C22.15 14.95 21.73 14.54 21.23 14.54L7.96 14.54C8.11 14.26 8.31 13.96 8.31 13.63C8.31 13.31 8.18 12.95 8.12 12.64L23.18 10.91C23.65 10.85 24 10.45 24 10L24 2.73Z" />
</svg>